<svg width="208" height="47" viewBox="0 0 208 47" fill="none" xmlns="http://www.w3.org/2000/svg">
<path d="M101.376 26.4242C101.316 26.6848 101.254 26.8915 101.223 27.1026C100.83 29.7669 100.441 32.4312 100.05 35.0955C99.6086 38.0961 99.1747 41.0981 98.7205 44.0972C98.4992 45.5604 97.9823 45.9928 96.4784 45.9972C93.6292 46.0059 90.78 46.0001 87.9323 45.9986C87.7154 45.9986 87.497 45.9957 87.2845 45.9666C86.2085 45.8239 85.517 44.9722 85.6451 43.8832C85.7863 42.685 85.98 41.4926 86.1561 40.2974C86.4954 38.0014 86.8389 35.7055 87.1782 33.4095C87.647 30.2255 88.1099 27.04 88.5802 23.8545C89.1669 19.8741 89.7595 15.8952 90.3491 11.9148C90.7888 8.94474 91.2328 5.97618 91.6594 3.00325C91.8341 1.78176 92.0874 1.02615 94.0165 0.994125C95.4709 0.970831 96.9268 0.989757 98.3827 0.988301C99.5896 0.988301 100.798 0.981023 102.005 0.99267C102.343 0.995582 102.68 1.04654 103.018 1.0873C103.735 1.1732 104.192 1.59978 104.481 2.23163C104.598 2.48496 104.7 2.74411 104.805 3.0018C107.09 8.58805 109.375 14.1743 111.662 19.7606C111.754 19.9848 111.863 20.2017 111.991 20.4827C112.219 20.2497 112.221 20.0022 112.253 19.7809C112.639 17.1793 113.019 14.5747 113.402 11.973C113.843 8.97241 114.285 5.97182 114.731 2.97123C114.767 2.72664 114.808 2.47768 114.893 2.24765C115.107 1.66529 115.476 1.22416 116.123 1.10623C116.456 1.04654 116.795 0.995581 117.133 0.994125C119.889 0.98539 122.645 0.98539 125.401 0.994125C125.739 0.995581 126.082 1.03489 126.412 1.10914C127.422 1.33772 127.974 2.14282 127.827 3.17214C127.595 4.79546 127.349 6.41732 127.109 8.04064C126.575 11.6542 126.042 15.2662 125.507 18.8797C124.915 22.8907 124.319 26.9017 123.728 30.9127C123.204 34.4651 122.684 38.0174 122.162 41.5698C122.035 42.4273 121.911 43.2848 121.78 44.1409C121.747 44.3549 121.706 44.5704 121.641 44.7757C121.448 45.3813 121.048 45.7875 120.416 45.9171C120.116 45.9782 119.802 45.9972 119.495 45.9972C116.769 46.003 114.045 45.9943 111.32 46.0045C110.194 46.0088 109.468 45.8676 108.855 44.3564C106.543 38.6478 104.192 32.9553 101.851 27.2569C101.733 26.9818 101.666 26.6702 101.376 26.4242Z" fill="#00FFA8"/>
<path d="M166.207 28.4336C166.273 25.3559 166.661 22.6989 167.265 20.0651C168.078 16.5273 169.459 13.2385 171.469 10.2131C173.849 6.62873 176.901 3.79411 180.815 1.95823C183.925 0.499431 187.214 -0.196485 190.647 0.0481042C193.745 0.2694 196.666 1.10945 199.272 2.89728C202.118 4.85109 204.165 7.4353 205.403 10.6383C206.713 14.0334 207.286 17.5479 206.96 21.2007C206.65 24.6745 205.991 28.0653 204.669 31.3017C203.162 34.9909 201.013 38.2623 198.074 40.9674C195.176 43.636 191.828 45.4981 187.959 46.3906C185.677 46.9176 183.381 47.1593 181.048 46.8841C178.34 46.5638 175.79 45.7922 173.508 44.2271C170.982 42.4931 169.154 40.2059 167.977 37.399C167.062 35.2151 166.538 32.925 166.329 30.5665C166.255 29.7323 166.232 28.8951 166.207 28.4336ZM194.058 20.3549C194.084 19.0475 193.993 17.7503 193.694 16.4793C193.356 15.0438 192.771 13.7247 191.684 12.675C191.132 12.1436 190.485 11.8001 189.733 11.6719C188.313 11.4303 186.958 11.5977 185.703 12.3489C184.762 12.9109 183.972 13.6461 183.267 14.4774C182.069 15.8867 181.246 17.5057 180.606 19.2309C179.284 22.7949 178.94 26.4507 179.576 30.1923C179.812 31.5827 180.325 32.8726 181.219 33.9864C181.909 34.8468 182.793 35.3651 183.905 35.4699C185.413 35.6126 186.793 35.2734 188.029 34.3838C189.069 33.6341 189.966 32.7401 190.663 31.6642C192.886 28.2225 194.028 24.4532 194.058 20.3549Z" fill="#00FFA8"/>
<path d="M56.8305 0.991857C58.1612 0.991857 59.4933 0.983121 60.824 0.99768C61.1923 1.00205 61.568 1.03408 61.9261 1.1127C62.9365 1.33254 63.4897 2.12745 63.3645 3.16696C63.2786 3.87306 63.1578 4.5748 63.053 5.27945C62.1503 11.3709 61.2462 17.4623 60.3436 23.5538C60.0305 25.6663 59.7015 27.7759 59.4249 29.8927C59.3332 30.593 59.2997 31.3239 59.3914 32.0198C59.5923 33.531 60.3669 34.6957 61.8184 35.2781C62.8608 35.6959 63.944 35.6493 64.9864 35.2271C66.7305 34.5196 67.9681 33.266 68.7746 31.5816C69.0833 30.9381 69.2987 30.2655 69.4036 29.5506C70.0631 25.0184 70.7372 20.4891 71.4083 15.9584C72.0023 11.9489 72.6007 7.93937 73.1976 3.92984C73.2704 3.44067 73.3388 2.95003 73.4349 2.46522C73.5878 1.68195 74.0566 1.20442 74.8588 1.0894C75.1631 1.04572 75.4717 0.999136 75.7789 0.99768C78.5029 0.990401 81.2283 0.990401 83.9523 0.99768C84.2595 0.999136 84.571 1.03262 84.871 1.09377C85.9876 1.32089 86.5598 2.10998 86.4171 3.24558C86.3123 4.07398 86.174 4.89947 86.0517 5.72496C85.7052 8.05147 85.3543 10.3765 85.0107 12.703C84.5361 15.9176 84.0688 19.1337 83.5927 22.3469C83.2622 24.5817 82.9448 26.8179 82.5823 29.0469C82.163 31.6296 81.4263 34.1134 80.1378 36.4108C78.9164 38.5888 77.4212 40.5455 75.5008 42.1615C72.8657 44.3803 69.8563 45.7998 66.4874 46.5234C62.9176 47.2892 59.4001 47.1582 55.9642 45.9469C51.3927 44.3366 48.3834 41.2065 47.0076 36.5156C46.1792 33.6897 46.1399 30.8464 46.5708 27.9651C47.2478 23.4359 47.9088 18.9037 48.577 14.3729C49.1332 10.608 49.6995 6.84308 50.2397 3.07669C50.4595 1.54801 51.055 1.00205 52.6492 0.994768C54.0439 0.987489 55.4372 0.991857 56.8305 0.991857Z" fill="#00FFA8"/>
<path d="M148.729 12.6854C148.553 12.6359 148.441 12.582 148.325 12.5762C148.047 12.5602 147.768 12.5646 147.49 12.5646C143.154 12.5646 138.82 12.566 134.484 12.5616C134.115 12.5616 133.737 12.5602 133.373 12.502C132.277 12.3258 131.692 11.5789 131.779 10.4797C131.814 10.0488 131.897 9.6222 131.961 9.19271C132.264 7.14136 132.565 5.09001 132.873 3.03866C132.913 2.76349 132.961 2.48688 133.043 2.2219C133.222 1.64828 133.599 1.25956 134.199 1.13435C134.531 1.06593 134.87 1.02953 135.206 0.996043C135.39 0.977117 135.578 0.991676 135.764 0.991676C146.261 0.991676 156.758 0.99022 167.255 0.9975C167.747 0.9975 168.249 1.02225 168.727 1.12416C169.676 1.32944 170.213 2.20006 170.049 3.15659C169.967 3.63121 169.729 4.01993 169.44 4.39118C168.321 5.83397 167.201 7.27676 166.087 8.72391C161.198 15.0774 156.313 21.4324 151.424 27.7874C149.895 29.7746 148.365 31.7605 146.838 33.7492C146.714 33.9108 146.616 34.0914 146.479 34.3054C146.804 34.4699 147.082 34.4218 147.347 34.4218C150.598 34.4248 153.849 34.4248 157.1 34.4248C158.183 34.4248 159.268 34.4189 160.351 34.4291C160.658 34.432 160.964 34.4786 161.27 34.515C162.42 34.6519 162.973 35.8282 162.826 36.6814C162.679 37.5345 162.568 38.395 162.44 39.2525C162.207 40.8132 161.976 42.3754 161.739 43.9361C161.702 44.1807 161.653 44.4238 161.596 44.664C161.421 45.4124 160.935 45.8375 160.19 45.9496C159.855 46.0005 159.511 46.0005 159.172 46.0005C154.899 46.0035 150.626 46.002 146.353 46.002C140.191 46.002 134.029 46.002 127.867 46.0005C127.527 46.0005 127.186 45.9991 126.847 45.9729C125.248 45.8448 124.886 44.1152 125.455 43.2009C125.57 43.0174 125.692 42.8383 125.825 42.6666C131.324 35.4948 136.825 28.3231 142.324 21.1514C144.339 18.5235 146.348 15.8913 148.358 13.259C148.487 13.0945 148.586 12.9096 148.729 12.6854Z" fill="#00FFA8"/>
<path d="M0.119297 44.627C1.72514 42.2597 12.1843 27.7852 14.1978 25.0089C14.4846 24.6129 15.1383 24.2664 15.7337 24.7905C15.7628 24.8167 16.2899 25.3 16.3175 25.3248C19.0037 27.7066 20.9473 29.3241 23.6305 31.7089C23.7557 31.8195 23.8823 31.9273 24.0119 32.035C24.2856 32.2621 24.6962 32.2082 24.8956 31.9156C24.9684 31.8093 25.0325 31.7016 25.1053 31.6011C27.3037 28.57 29.4948 25.533 31.6874 22.4975C34.4245 18.7092 37.1601 14.921 39.9001 11.1357L39.9044 11.1299C40.1738 10.7586 40.7372 10.8168 40.9337 11.2303C40.9425 11.2478 40.9498 11.2653 40.9585 11.2827C41.7578 12.8696 42.2411 14.5643 42.6197 16.291C43.2399 19.1183 43.0972 21.9413 42.5789 24.7716C41.7374 29.362 39.7152 33.373 36.7175 36.9151C33.7795 40.3889 30.1834 42.9542 25.9235 44.5455C23.4456 45.4714 20.8745 45.997 18.2102 45.9955C12.8249 45.9926 7.43952 45.9999 2.05418 45.9984C1.7761 45.9984 1.49657 45.9853 1.22286 45.9417C0.743874 45.8674 0.360975 45.665 0.116386 45.2982C-0.0204682 45.0958 -0.0190128 44.8294 0.119297 44.627Z" fill="#00FFA8"/>
<path d="M23.3709 23.2428C23.3141 23.3447 23.0797 23.7043 22.608 23.3563C22.3547 23.1685 22.4435 23.25 22.2396 23.0768C19.536 20.7619 17.2241 18.7703 14.5234 16.4496C13.7605 15.7609 13.0151 16.0769 12.6439 16.9155C10.8895 20.5348 9.40159 23.5558 7.65015 27.1766C5.2654 32.1062 2.8792 37.0359 0.490079 41.9641C0.271696 42.462 -0.0296734 42.3368 0.00235617 42.1096C0.350314 39.722 0.701184 37.3343 1.05351 34.9481C1.582 31.3666 2.11049 27.7866 2.63897 24.2051C3.16746 20.6236 3.69304 17.0436 4.22007 13.4621C4.6976 10.2184 5.17368 6.97318 5.65412 3.72945C5.71236 3.33199 5.76623 2.93162 5.86232 2.54144C6.04867 1.78875 6.48398 1.26899 7.29346 1.15252C7.59774 1.10885 7.90639 1.06954 8.21358 1.06954C13.5378 1.06517 18.8605 1.03896 24.1847 1.07682C27.2901 1.09865 30.2601 1.77273 33.0336 3.21261C33.0525 3.2228 33.0715 3.23299 33.0904 3.24318C32.9171 3.62463 26.6801 16.4132 23.3709 23.2428Z" fill="#00FFA8"/>
</svg>
