<svg width="211" height="47" viewBox="0 0 211 47" fill="none" xmlns="http://www.w3.org/2000/svg">
<g clip-path="url(#clip0_2300_31)">
<path d="M152.396 11.128V13.6331H152.533C153.664 12.1186 155.3 11.0606 157.144 10.6508C159.074 10.1082 161.127 10.2038 162.997 10.9235C164.41 11.4062 165.613 12.3636 166.401 13.6331C166.523 13.8147 166.637 14.0024 166.741 14.1954C166.794 14.0683 166.863 13.9481 166.945 13.8376C167.574 12.9433 168.372 12.182 169.295 11.5971C170.218 11.0123 171.246 10.6154 172.322 10.4293C174.488 9.97377 176.744 10.2682 178.72 11.2643C179.924 11.8341 180.961 12.7037 181.732 13.7898C182.504 14.8759 182.984 16.1421 183.128 17.4674C183.241 18.1772 183.286 18.8961 183.264 19.6146V35.7868H176.032V21.7788C176.021 21.2425 175.976 20.7074 175.896 20.1769C175.786 19.4515 175.445 18.7809 174.923 18.2651C174.402 17.7493 173.729 17.4157 173.003 17.314C172.308 17.1495 171.582 17.1801 170.903 17.4026C170.224 17.6251 169.62 18.0308 169.157 18.5751C168.47 19.3884 168.101 20.4239 168.119 21.4891V35.7868H160.734V21.7107C160.752 21.0232 160.654 20.3378 160.445 19.6827C160.226 19.0035 159.806 18.407 159.241 17.9719C158.675 17.5368 157.992 17.2836 157.28 17.2458C156.708 17.1896 156.131 17.2416 155.578 17.3992C154.891 17.6056 154.274 18.0007 153.799 18.5398C153.324 19.0789 153.009 19.7405 152.89 20.4496C152.854 20.8464 152.854 21.2457 152.89 21.6425V35.7868H145.386V11.128H152.396ZM203.802 13.4286V11.128H211V33.6737C211.012 36.4061 210.301 39.0929 208.941 41.4616C208.287 42.6478 207.402 43.6904 206.338 44.5276C205.274 45.3648 204.053 45.9796 202.747 46.3354C199.621 47.2537 196.293 47.2241 193.184 46.2502C190.731 45.5037 188.609 43.9328 187.177 41.8024C186.549 40.9046 186.103 39.891 185.867 38.8202V38.4623C185.894 38.3503 185.894 38.2335 185.867 38.1215L192.401 36.2469C192.483 36.3945 192.535 36.5566 192.555 36.7241C192.86 37.7864 193.501 38.7209 194.381 39.3876C195.262 40.0544 196.334 40.4173 197.438 40.422C198.32 40.4505 199.2 40.3296 200.042 40.0642C200.902 39.7309 201.664 39.1864 202.259 38.4806C202.854 37.7748 203.261 36.9305 203.445 36.0254C203.708 34.8173 203.799 33.5781 203.717 32.3445C202.708 33.6079 201.251 34.4322 199.65 34.645C197.47 35.1022 195.203 34.9066 193.133 34.0827C191.448 33.4779 189.936 32.4714 188.726 31.1502C187.516 29.8289 186.646 28.2327 186.19 26.4993C185.681 24.9119 185.497 23.238 185.649 21.5777C185.801 19.9174 186.286 18.3049 187.075 16.8368C187.708 15.5256 188.592 14.3523 189.679 13.3843C190.765 12.4164 192.031 11.6727 193.405 11.1962C195.542 10.4995 197.832 10.4285 200.008 10.9917C201.512 11.3487 202.85 12.2082 203.802 13.4286ZM193.201 22.682V23.4489C193.254 24.3882 193.574 25.2929 194.122 26.0567C194.671 26.8204 195.426 27.4115 196.298 27.7603C197.085 28.079 197.939 28.1962 198.782 28.1012C199.803 28.0883 200.792 27.7513 201.609 27.1387C202.425 26.5262 203.027 25.6697 203.326 24.6929C203.588 23.8388 203.681 22.9413 203.598 22.0515C203.556 21.2493 203.325 20.4684 202.925 19.7721C202.525 19.0758 201.967 18.4837 201.295 18.0439C200.624 17.6041 199.859 17.3288 199.062 17.2405C198.264 17.1522 197.457 17.2532 196.706 17.5355C195.647 17.9013 194.734 18.5997 194.102 19.5269C193.471 20.4541 193.155 21.5606 193.201 22.682ZM145.25 7.71973V0H210.881C211.017 2.54869 211.017 5.10287 210.881 7.65156C210.541 7.78789 146.339 7.85606 145.25 7.71973ZM134.427 46.8125V39.0928H183.281V46.8125H134.427ZM142.017 35.7868H134.308V11.3325H126.736V6.04967H127.349C129.496 5.99004 131.559 5.20306 133.202 3.81726C134.266 2.94648 135.014 1.74851 135.329 0.408992V0.136331H141.932L142.017 35.7868ZM59.7947 38.1896H49.0575C48.8731 38.2203 48.684 38.1791 48.5289 38.0745C48.3739 37.97 48.2647 37.8099 48.2237 37.6273L42.7275 21.421C42.7275 21.2165 42.5914 21.012 42.4552 20.6541L41.8937 22.1878L36.7889 37.525C36.7809 37.6219 36.7528 37.716 36.7064 37.8014C36.66 37.8868 36.5964 37.9616 36.5195 38.0209C36.4426 38.0802 36.3542 38.1229 36.26 38.1461C36.1657 38.1692 36.0677 38.1725 35.9721 38.1555H25.2519C25.5923 37.3205 25.8645 36.4514 26.1368 35.6505L35.9891 9.42386C36.1933 8.9467 36.3975 8.72516 36.942 8.72516H47.8153C48.0171 8.69891 48.2213 8.749 48.3881 8.86562C48.5549 8.98224 48.6723 9.15699 48.7172 9.35569L59.5564 37.4909C59.6703 37.7106 59.7507 37.9461 59.7947 38.1896ZM117.037 38.1896H106.232C105.755 38.1896 105.551 38.0533 105.415 37.6273L99.9017 21.421C99.9017 21.2165 99.7656 21.012 99.6294 20.6541L99.3572 21.4891L93.912 37.4909C93.9015 37.5957 93.8701 37.6974 93.8195 37.7897C93.769 37.8821 93.7004 37.9633 93.6178 38.0285C93.5352 38.0937 93.4403 38.1416 93.3389 38.1693C93.2374 38.197 93.1314 38.2039 93.0272 38.1896H82.4942C82.4942 37.917 82.6303 37.6954 82.6984 37.4909L93.2994 9.32161C93.352 9.11346 93.4812 8.93287 93.661 8.81597C93.8408 8.69906 94.0581 8.65446 94.2694 8.69108H105.211C105.391 8.67602 105.57 8.7238 105.719 8.82629C105.868 8.92879 105.977 9.07971 106.027 9.25344L116.969 37.6954C116.961 37.863 116.984 38.0305 117.037 38.1896ZM85.3869 8.82741V17.4674H77.3383V38.2578H65.6482V17.5355H57.3103V8.89558L85.3869 8.82741ZM0 8.82741H28.1447V17.4503H20.096V38.2578H8.32089V17.5355H0V8.82741Z" fill="black"/>
</g>
<defs>
<clipPath id="clip0_2300_31">
<rect width="211" height="47" fill="white"/>
</clipPath>
</defs>
</svg>
