<svg width="1043" height="222" viewBox="0 0 1043 222" fill="none" xmlns="http://www.w3.org/2000/svg">
<path d="M46.7236 9.09167C66.1013 8.77685 82.1199 24.1276 82.638 43.5087C83.1561 62.89 67.9809 79.0756 48.6144 79.7976C35.9043 80.2716 23.9194 73.8785 17.2297 63.0565C10.54 52.2345 10.1768 38.6517 16.2786 27.4874C22.3803 16.3231 34.0064 9.29829 46.7236 9.09167Z" fill="#F97316"/>
<path d="M542.08 64.1364V66.7879C540.312 67.4066 538.367 68.7765 536.246 70.8977C534.125 73.0189 532.357 76.4217 530.943 81.1061L506.947 158.398C506.417 158.398 505.842 158.354 505.223 158.265C504.693 158.265 504.119 158.265 503.5 158.265C502.97 158.265 502.395 158.265 501.777 158.265C501.246 158.354 500.716 158.398 500.186 158.398L472.08 74.3447C471.107 71.3396 469.958 69.351 468.633 68.3788C467.395 67.4066 466.114 66.8763 464.788 66.7879V64.1364C466.909 64.2247 469.472 64.3131 472.477 64.4015C475.571 64.4899 478.62 64.5341 481.625 64.5341C485.337 64.5341 488.828 64.4899 492.098 64.4015C495.369 64.3131 498.02 64.2247 500.053 64.1364V66.7879C497.313 66.8763 495.192 67.1856 493.689 67.7159C492.187 68.1578 491.303 69.1742 491.038 70.7651C490.861 72.2677 491.303 74.654 492.364 77.9242L511.455 136.655L508.803 140.898L524.712 90.6515C526.657 84.6414 527.54 79.9129 527.364 76.4659C527.275 73.0189 526.259 70.5884 524.314 69.1742C522.37 67.6717 519.586 66.8763 515.962 66.7879V64.1364C518.879 64.2247 521.619 64.3131 524.182 64.4015C526.833 64.4899 529.485 64.5341 532.136 64.5341C534.169 64.5341 535.981 64.4899 537.572 64.4015C539.251 64.3131 540.754 64.2247 542.08 64.1364ZM448.216 64.1364V66.7879C446.183 66.9646 444.769 67.5391 443.973 68.5114C443.178 69.4836 442.824 70.7651 442.913 72.3561C443.09 73.8586 443.532 75.7146 444.239 77.9242L464.523 138.114L461.076 142.356L478.576 89.5909L480.564 93.0379L459.22 158.398C458.689 158.398 458.115 158.354 457.496 158.265C456.966 158.265 456.391 158.265 455.773 158.265C455.242 158.265 454.668 158.265 454.049 158.265C453.519 158.354 452.989 158.398 452.458 158.398L423.292 75.2727C422.143 72.0025 420.729 69.7929 419.049 68.6439C417.458 67.4949 416 66.8763 414.674 66.7879V64.1364C416.972 64.2247 419.756 64.3131 423.027 64.4015C426.297 64.4899 429.479 64.5341 432.572 64.5341C435.842 64.5341 438.847 64.4899 441.587 64.4015C444.327 64.3131 446.537 64.2247 448.216 64.1364ZM555.303 158.928C551.502 158.928 548.276 158.221 545.625 156.807C542.973 155.304 540.985 153.316 539.659 150.841C538.333 148.278 537.67 145.449 537.67 142.356C537.67 138.556 538.554 135.462 540.322 133.076C542.09 130.601 544.343 128.657 547.083 127.242C549.912 125.74 552.872 124.503 555.966 123.53C559.059 122.47 561.976 121.497 564.716 120.614C567.456 119.641 569.71 118.537 571.477 117.299C573.245 116.062 574.129 114.427 574.129 112.394V102.716C574.129 99.8876 573.687 97.5896 572.803 95.822C572.007 93.9659 570.77 92.596 569.091 91.7121C567.5 90.7399 565.467 90.2538 562.992 90.2538C561.136 90.2538 559.192 90.5189 557.159 91.0492C555.126 91.5795 553.447 92.596 552.121 94.0985C554.419 94.7172 556.187 95.8662 557.424 97.5454C558.75 99.2247 559.413 101.258 559.413 103.644C559.413 106.384 558.485 108.549 556.629 110.14C554.861 111.643 552.607 112.394 549.867 112.394C546.951 112.394 544.741 111.466 543.239 109.61C541.736 107.754 540.985 105.588 540.985 103.114C540.985 100.639 541.603 98.6061 542.841 97.0151C544.078 95.3359 545.802 93.8333 548.011 92.5076C550.221 91.005 553.049 89.8119 556.496 88.928C559.943 88.0442 563.699 87.6023 567.765 87.6023C571.654 87.6023 575.101 88.0442 578.106 88.928C581.111 89.7235 583.674 91.1818 585.795 93.303C587.917 95.3359 589.287 97.8548 589.905 100.86C590.524 103.865 590.833 107.533 590.833 111.864V148.189C590.833 150.399 591.098 151.99 591.629 152.962C592.159 153.846 592.999 154.288 594.148 154.288C595.031 154.288 595.871 154.067 596.667 153.625C597.462 153.183 598.346 152.564 599.318 151.769L600.776 154.023C598.832 155.525 596.799 156.718 594.678 157.602C592.557 158.486 589.994 158.928 586.989 158.928C583.895 158.928 581.42 158.486 579.564 157.602C577.797 156.718 576.471 155.437 575.587 153.758C574.792 152.078 574.35 150.09 574.261 147.792C572.14 151.327 569.533 154.067 566.439 156.011C563.346 157.956 559.634 158.928 555.303 158.928ZM563.257 151.504C565.379 151.504 567.323 150.929 569.091 149.78C570.947 148.631 572.626 146.908 574.129 144.61V117.83C573.245 119.155 571.963 120.348 570.284 121.409C568.693 122.47 566.97 123.53 565.114 124.591C563.257 125.652 561.49 126.889 559.811 128.303C558.22 129.629 556.85 131.308 555.701 133.341C554.64 135.285 554.11 137.804 554.11 140.898C554.11 144.345 554.949 146.996 556.629 148.852C558.308 150.62 560.518 151.504 563.257 151.504ZM652.182 87.6023C655.894 87.6023 658.855 88.0884 661.064 89.0606C663.362 90.0328 665.218 91.2702 666.632 92.7727C668.223 94.452 669.328 96.6174 669.947 99.2689C670.654 101.92 671.007 105.5 671.007 110.008V145.67C671.007 149.383 671.67 151.902 672.996 153.227C674.41 154.553 676.752 155.216 680.023 155.216V158C678.432 157.912 675.957 157.823 672.598 157.735C669.328 157.558 666.146 157.47 663.053 157.47C659.783 157.47 656.601 157.558 653.507 157.735C650.414 157.823 648.116 157.912 646.613 158V155.216C649.442 155.216 651.43 154.553 652.579 153.227C653.728 151.902 654.303 149.383 654.303 145.67V105.5C654.303 103.114 654.082 100.992 653.64 99.1364C653.198 97.1919 652.314 95.6894 650.988 94.6288C649.663 93.4798 647.762 92.9053 645.288 92.9053C642.371 92.9053 639.764 93.7008 637.466 95.2917C635.256 96.8826 633.488 99.0922 632.163 101.92C630.925 104.66 630.307 107.754 630.307 111.201V145.67C630.307 149.383 630.881 151.902 632.03 153.227C633.179 154.553 635.168 155.216 637.996 155.216V158C636.494 157.912 634.24 157.823 631.235 157.735C628.23 157.558 625.18 157.47 622.087 157.47C618.817 157.47 615.502 157.558 612.144 157.735C608.785 157.823 606.266 157.912 604.587 158V155.216C607.857 155.216 610.155 154.553 611.481 153.227C612.895 151.902 613.602 149.383 613.602 145.67V103.909C613.602 99.9318 612.939 97.0151 611.613 95.1591C610.376 93.2146 608.034 92.2424 604.587 92.2424V89.4583C607.415 89.7235 610.155 89.8561 612.807 89.8561C616.077 89.8561 619.17 89.7235 622.087 89.4583C625.092 89.1048 627.832 88.6187 630.307 88V101.258C632.516 96.2197 635.565 92.6843 639.454 90.6515C643.343 88.6187 647.586 87.6023 652.182 87.6023ZM748.75 54.1932V143.549C748.75 147.527 749.412 150.487 750.738 152.432C752.064 154.288 754.406 155.216 757.765 155.216V158C755.025 157.735 752.285 157.602 749.545 157.602C746.275 157.602 743.181 157.735 740.265 158C737.348 158.265 734.608 158.751 732.045 159.458V70.1023C732.045 66.125 731.382 63.2083 730.056 61.3523C728.819 59.4078 726.477 58.4356 723.03 58.4356V55.6515C725.858 55.9167 728.598 56.0492 731.25 56.0492C734.608 56.0492 737.746 55.9167 740.663 55.6515C743.579 55.298 746.275 54.8119 748.75 54.1932ZM717.064 87.6023C720.953 87.6023 724.444 88.3535 727.537 89.8561C730.631 91.3586 732.929 93.8775 734.431 97.4129L732.841 98.7386C731.603 96.1755 729.924 94.2753 727.803 93.0379C725.681 91.8005 723.295 91.1818 720.644 91.1818C715.871 91.1818 712.026 93.8775 709.109 99.2689C706.281 104.572 704.867 112.747 704.867 123.795C704.867 131.22 705.442 137.23 706.591 141.826C707.74 146.333 709.375 149.604 711.496 151.636C713.705 153.669 716.313 154.686 719.318 154.686C722.5 154.686 725.372 153.404 727.935 150.841C730.498 148.189 732.001 144.433 732.443 139.572L733.371 143.284C732.222 148.676 730.056 152.785 726.875 155.614C723.693 158.442 719.495 159.856 714.28 159.856C708.977 159.856 704.248 158.574 700.094 156.011C696.029 153.36 692.847 149.383 690.549 144.08C688.339 138.688 687.234 131.883 687.234 123.663C687.234 115.62 688.56 108.947 691.212 103.644C693.863 98.2525 697.443 94.2311 701.95 91.5795C706.458 88.928 711.496 87.6023 717.064 87.6023ZM797.113 87.6023C804.891 87.6023 810.989 89.9444 815.408 94.6288C819.827 99.3131 822.037 106.782 822.037 117.034H777.359L777.226 114.515H806.658C806.835 110.184 806.57 106.207 805.863 102.583C805.156 98.8712 804.007 95.9104 802.416 93.7008C800.913 91.4912 798.925 90.3864 796.45 90.3864C793.091 90.3864 790.175 92.375 787.7 96.3523C785.225 100.241 783.678 106.649 783.06 115.576L783.59 116.371C783.413 117.52 783.281 118.758 783.192 120.083C783.192 121.409 783.192 122.735 783.192 124.061C783.192 130.159 784.076 135.197 785.844 139.174C787.612 143.152 789.91 146.068 792.738 147.924C795.566 149.78 798.483 150.708 801.488 150.708C803.521 150.708 805.598 150.399 807.719 149.78C809.84 149.162 811.917 148.013 813.95 146.333C815.983 144.654 817.839 142.268 819.518 139.174L822.037 140.235C821.065 143.328 819.43 146.422 817.132 149.515C814.922 152.52 812.05 154.995 808.514 156.939C804.979 158.884 800.825 159.856 796.052 159.856C790.042 159.856 784.739 158.53 780.143 155.879C775.547 153.227 771.968 149.294 769.405 144.08C766.841 138.777 765.56 132.324 765.56 124.723C765.56 116.681 766.886 109.919 769.537 104.439C772.277 98.9596 776.033 94.8056 780.806 91.9773C785.579 89.0606 791.014 87.6023 797.113 87.6023ZM874.136 87.6023C876.876 87.6023 879.13 88.1768 880.898 89.3258C882.754 90.4747 884.124 91.9331 885.007 93.7008C885.891 95.4684 886.333 97.3245 886.333 99.2689C886.333 102.186 885.449 104.616 883.682 106.561C882.002 108.505 879.749 109.477 876.92 109.477C874.269 109.477 872.103 108.77 870.424 107.356C868.745 105.942 867.905 103.997 867.905 101.523C867.905 99.3131 868.435 97.4571 869.496 95.9545C870.645 94.452 871.927 93.2588 873.341 92.375C872.369 91.8447 871.264 91.6679 870.026 91.8447C867.905 92.0215 865.961 92.7727 864.193 94.0985C862.425 95.4242 860.923 97.0593 859.685 99.0038C858.448 100.948 857.476 103.025 856.769 105.235C856.15 107.444 855.841 109.566 855.841 111.598V144.345C855.841 148.676 856.946 151.592 859.155 153.095C861.365 154.509 864.591 155.216 868.833 155.216V158C866.8 157.912 863.84 157.823 859.951 157.735C856.15 157.558 852.173 157.47 848.019 157.47C844.572 157.47 841.125 157.558 837.678 157.735C834.319 157.823 831.8 157.912 830.121 158V155.216C833.391 155.216 835.689 154.553 837.015 153.227C838.429 151.902 839.136 149.383 839.136 145.67V103.909C839.136 99.9318 838.473 97.0151 837.148 95.1591C835.91 93.2146 833.568 92.2424 830.121 92.2424V89.4583C832.949 89.7235 835.689 89.8561 838.341 89.8561C841.611 89.8561 844.704 89.7235 847.621 89.4583C850.626 89.1048 853.366 88.6187 855.841 88V101.788C856.901 99.3131 858.271 97.0151 859.951 94.8939C861.718 92.7727 863.795 91.0492 866.182 89.7235C868.656 88.3093 871.308 87.6023 874.136 87.6023ZM922.574 87.6023C928.673 87.6023 934.064 88.8396 938.748 91.3144C943.521 93.7008 947.277 97.5455 950.017 102.848C952.846 108.152 954.26 115.134 954.26 123.795C954.26 132.457 952.846 139.439 950.017 144.742C947.277 150.045 943.521 153.89 938.748 156.277C934.064 158.663 928.673 159.856 922.574 159.856C916.476 159.856 911.04 158.663 906.267 156.277C901.495 153.89 897.738 150.045 894.998 144.742C892.258 139.439 890.888 132.457 890.888 123.795C890.888 115.134 892.258 108.152 894.998 102.848C897.738 97.5455 901.495 93.7008 906.267 91.3144C911.04 88.8396 916.476 87.6023 922.574 87.6023ZM922.574 90.2538C918.42 90.2538 915.017 92.9053 912.366 98.2083C909.803 103.423 908.521 111.952 908.521 123.795C908.521 135.639 909.803 144.168 912.366 149.383C915.017 154.597 918.42 157.205 922.574 157.205C926.64 157.205 929.998 154.597 932.65 149.383C935.301 144.168 936.627 135.639 936.627 123.795C936.627 111.952 935.301 103.423 932.65 98.2083C929.998 92.9053 926.64 90.2538 922.574 90.2538ZM996.63 87.6023C1002.73 87.6023 1008.12 88.8396 1012.8 91.3144C1017.58 93.7008 1021.33 97.5455 1024.07 102.848C1026.9 108.152 1028.32 115.134 1028.32 123.795C1028.32 132.457 1026.9 139.439 1024.07 144.742C1021.33 150.045 1017.58 153.89 1012.8 156.277C1008.12 158.663 1002.73 159.856 996.63 159.856C990.532 159.856 985.096 158.663 980.323 156.277C975.551 153.89 971.794 150.045 969.054 144.742C966.314 139.439 964.944 132.457 964.944 123.795C964.944 115.134 966.314 108.152 969.054 102.848C971.794 97.5455 975.551 93.7008 980.323 91.3144C985.096 88.8396 990.532 87.6023 996.63 87.6023ZM996.63 90.2538C992.476 90.2538 989.073 92.9053 986.422 98.2083C983.859 103.423 982.577 111.952 982.577 123.795C982.577 135.639 983.859 144.168 986.422 149.383C989.073 154.597 992.476 157.205 996.63 157.205C1000.7 157.205 1004.05 154.597 1006.71 149.383C1009.36 144.168 1010.68 135.639 1010.68 123.795C1010.68 111.952 1009.36 103.423 1006.71 98.2083C1004.05 92.9053 1000.7 90.2538 996.63 90.2538Z" fill="black"/>
<path d="M332.655 51.8875C311.653 64.8001 300.714 65.7019 285.044 45.9695C270.066 27.1086 251.867 4.08201 225.407 6.15735C203.131 7.24607 183.39 16.3367 164.563 27.741C162.403 29.0497 158.812 31.2183 156.416 29.893C156.677 24.8734 166.648 20.7933 170.686 18.6129C189.292 8.45363 209.248 1.02275 230.659 1.60417C253.68 2.22932 270.74 20.398 284.17 37.3456C298.546 55.4868 306.022 63.8602 329.082 48.7388C326.785 44.291 325.365 40.0002 327.015 34.9375C328.041 31.7168 330.319 29.0447 333.337 27.5237C335.365 26.4964 337.726 26.0805 339.927 26.7957C341.582 27.3295 342.946 28.52 343.699 30.0886C346.941 36.7681 340.391 44.4302 336.173 48.9712C347.266 59.4334 354.095 58.1493 359.547 74.5834C361.695 81.0576 377.709 91.3882 357.617 92.9957C346.615 93.5965 343.272 84.8682 334.918 81.611C333.921 81.6711 330.495 81.8987 329.784 82.2954C320.7 87.3632 314.526 93.2009 304.711 97.4876C295.276 101.608 285.147 100.888 276.464 104.706C266.025 109.296 258.508 123.014 244.942 120.796C242.304 120.417 239.522 119.919 238.255 117.355C238.276 113.794 243.601 112.526 245.846 110.007C250.556 104.726 254.755 95.8119 256.841 89.0984C252.002 88.3469 248.074 87.3886 243.573 85.4232C238.969 98.5635 221.091 119.141 211.867 129.501C194.536 148.967 186.4 165.408 198.64 190.659C203.547 200.784 209.879 208.776 217.39 217.037C218.035 217.745 218.534 218.712 218.466 219.713C218.158 220.351 217.674 221.442 217.309 222H216.015C213.457 220.199 206.395 216.893 203.165 214.821C191.242 207.173 179.428 196.214 173.946 183.008C166.476 165.011 170.221 151.026 177.608 134.375C183.339 118.385 186.062 107.602 180.548 91.7349C176.135 79.0371 159.666 77.1099 158.043 73.3634C158.139 68.3226 168.667 64.2635 172.79 62.6366C198.266 52.581 218.91 68.984 240.669 79.2795C249.693 56.1956 224.821 42.1338 205.346 40.3334C187.79 38.5169 161.985 41.7606 146.567 50.7448C107.74 73.3695 42.552 130.498 0 85.6457V83.6788C0.991972 83.2577 2.13585 82.5352 3.23969 83.1279C6.93683 85.1141 10.5916 89.4874 14.0881 91.5191C46.5558 110.383 92.628 80.6991 119.122 62.5587C140.391 46.4166 163.126 35.5887 190.314 35.245C202.278 35.0936 212.486 35.339 224.032 40.3651C242.624 48.4582 251.013 61.5256 245.181 81.4934C249.327 82.5723 255.06 84.414 259.062 84.914C263.259 77.7072 266.057 71.6139 274.983 69.568C280.461 68.3124 293.354 67.8862 295.75 74.1114C295.08 78.8783 277.107 88.0119 272.288 88.8617C270.027 89.2609 264.537 89.687 262.1 89.5969C257.986 100.082 254.66 108.634 246.251 116.463C261.414 113.404 261.897 106.953 274.529 100.183C283.803 96.3684 292.161 97.6368 301.873 93.5456C312.727 88.9742 319.347 81.7266 329.776 77.199C339.43 73.008 353.797 94.6301 361.515 87.6845C361.697 86.356 359.958 83.6656 359.158 82.7353C355.424 78.3956 353.998 71.4484 350.91 67.3124C346.149 60.935 338.261 57.7033 332.655 51.8875ZM165.095 72.0747C175.252 77.0763 182.642 81.9099 186.405 93.3658C197.23 126.323 165.458 148.365 177.61 179.365C182.787 192.572 192.85 201.987 204.279 209.898L204.611 209.566C202.611 205.557 199.742 202.553 197.633 198.691C165.707 147.267 220.708 124.38 239.233 83.6773C222.881 77.061 209.686 64.7879 190.926 64.5781C189.618 64.5634 184.946 64.5842 183.791 64.8572C176.888 65.6087 170.57 67.5792 165.095 72.0747ZM264.545 85.1147C267.576 84.7745 271.234 84.5541 273.951 83.2974C280.603 80.6146 283.398 78.8396 289.158 74.6908C283.914 73.4953 282.417 72.9749 277.07 73.4276C269.919 76.6501 268.426 78.1497 264.545 85.1147ZM333.428 45.123C336.497 41.3291 342.347 35.2979 338.152 30.6737L337.193 30.2594C332.989 33.1175 327.287 42.0484 333.428 45.123Z" fill="#0B1B2B"/>
</svg>
